<mxfile host="Electron" agent="Mozilla/5.0 (Windows NT 10.0; Win64; x64) AppleWebKit/537.36 (KHTML, like Gecko) draw.io/25.0.1 Chrome/128.0.6613.186 Electron/32.2.6 Safari/537.36" version="25.0.1">
  <diagram name="Page-1" id="lVhJfgS0d_DWc1RwReUQ">
    <mxGraphModel dx="-1265" dy="2017" grid="1" gridSize="10" guides="1" tooltips="1" connect="1" arrows="1" fold="1" page="1" pageScale="1" pageWidth="850" pageHeight="1100" math="0" shadow="0">
      <root>
        <mxCell id="0" />
        <mxCell id="1" parent="0" />
        <mxCell id="U4qVRm3MOC_HSsaQBMJ2-1" value="" style="shape=umlActor;verticalLabelPosition=bottom;verticalAlign=top;html=1;outlineConnect=0;" vertex="1" parent="1">
          <mxGeometry x="4333" y="419" width="50" height="110" as="geometry" />
        </mxCell>
        <mxCell id="U4qVRm3MOC_HSsaQBMJ2-2" value="" style="endArrow=classic;html=1;rounded=0;" edge="1" parent="1">
          <mxGeometry width="50" height="50" relative="1" as="geometry">
            <mxPoint x="4383" y="474" as="sourcePoint" />
            <mxPoint x="4443" y="474" as="targetPoint" />
          </mxGeometry>
        </mxCell>
        <mxCell id="U4qVRm3MOC_HSsaQBMJ2-3" style="edgeStyle=orthogonalEdgeStyle;rounded=0;orthogonalLoop=1;jettySize=auto;html=1;entryX=0;entryY=0.5;entryDx=0;entryDy=0;" edge="1" parent="1" source="U4qVRm3MOC_HSsaQBMJ2-7" target="U4qVRm3MOC_HSsaQBMJ2-9">
          <mxGeometry relative="1" as="geometry" />
        </mxCell>
        <mxCell id="U4qVRm3MOC_HSsaQBMJ2-4" style="edgeStyle=orthogonalEdgeStyle;rounded=0;orthogonalLoop=1;jettySize=auto;html=1;entryX=0;entryY=0.5;entryDx=0;entryDy=0;" edge="1" parent="1" source="U4qVRm3MOC_HSsaQBMJ2-7" target="U4qVRm3MOC_HSsaQBMJ2-12">
          <mxGeometry relative="1" as="geometry" />
        </mxCell>
        <mxCell id="U4qVRm3MOC_HSsaQBMJ2-5" style="edgeStyle=orthogonalEdgeStyle;rounded=0;orthogonalLoop=1;jettySize=auto;html=1;entryX=0;entryY=0.5;entryDx=0;entryDy=0;" edge="1" parent="1" source="U4qVRm3MOC_HSsaQBMJ2-7" target="U4qVRm3MOC_HSsaQBMJ2-10">
          <mxGeometry relative="1" as="geometry" />
        </mxCell>
        <mxCell id="U4qVRm3MOC_HSsaQBMJ2-6" style="edgeStyle=orthogonalEdgeStyle;rounded=0;orthogonalLoop=1;jettySize=auto;html=1;entryX=0;entryY=0.5;entryDx=0;entryDy=0;" edge="1" parent="1" source="U4qVRm3MOC_HSsaQBMJ2-7" target="U4qVRm3MOC_HSsaQBMJ2-15">
          <mxGeometry relative="1" as="geometry" />
        </mxCell>
        <mxCell id="U4qVRm3MOC_HSsaQBMJ2-7" value="CRUD Operations for Trail" style="ellipse;whiteSpace=wrap;html=1;fillColor=#f8cecc;strokeColor=#b85450;" vertex="1" parent="1">
          <mxGeometry x="4443" y="444" width="110" height="60" as="geometry" />
        </mxCell>
        <mxCell id="U4qVRm3MOC_HSsaQBMJ2-8" style="edgeStyle=orthogonalEdgeStyle;rounded=0;orthogonalLoop=1;jettySize=auto;html=1;" edge="1" parent="1" source="U4qVRm3MOC_HSsaQBMJ2-9" target="U4qVRm3MOC_HSsaQBMJ2-17">
          <mxGeometry relative="1" as="geometry" />
        </mxCell>
        <mxCell id="U4qVRm3MOC_HSsaQBMJ2-9" value="Update" style="ellipse;whiteSpace=wrap;html=1;fillColor=#dae8fc;strokeColor=#6c8ebf;" vertex="1" parent="1">
          <mxGeometry x="4593" y="414" width="110" height="60" as="geometry" />
        </mxCell>
        <mxCell id="U4qVRm3MOC_HSsaQBMJ2-190" style="edgeStyle=orthogonalEdgeStyle;rounded=0;orthogonalLoop=1;jettySize=auto;html=1;exitX=1;exitY=0.5;exitDx=0;exitDy=0;entryX=0;entryY=0.5;entryDx=0;entryDy=0;" edge="1" parent="1" source="U4qVRm3MOC_HSsaQBMJ2-10" target="U4qVRm3MOC_HSsaQBMJ2-182">
          <mxGeometry relative="1" as="geometry" />
        </mxCell>
        <mxCell id="U4qVRm3MOC_HSsaQBMJ2-10" value="Delete" style="ellipse;whiteSpace=wrap;html=1;fillColor=#dae8fc;strokeColor=#6c8ebf;" vertex="1" parent="1">
          <mxGeometry x="4593" y="554" width="110" height="60" as="geometry" />
        </mxCell>
        <mxCell id="U4qVRm3MOC_HSsaQBMJ2-11" style="edgeStyle=orthogonalEdgeStyle;rounded=0;orthogonalLoop=1;jettySize=auto;html=1;" edge="1" parent="1" source="U4qVRm3MOC_HSsaQBMJ2-12" target="U4qVRm3MOC_HSsaQBMJ2-14">
          <mxGeometry relative="1" as="geometry" />
        </mxCell>
        <mxCell id="U4qVRm3MOC_HSsaQBMJ2-12" value="Retrieve" style="ellipse;whiteSpace=wrap;html=1;fillColor=#dae8fc;strokeColor=#6c8ebf;" vertex="1" parent="1">
          <mxGeometry x="4593" y="484" width="110" height="60" as="geometry" />
        </mxCell>
        <mxCell id="U4qVRm3MOC_HSsaQBMJ2-13" style="edgeStyle=orthogonalEdgeStyle;rounded=0;orthogonalLoop=1;jettySize=auto;html=1;" edge="1" parent="1" source="U4qVRm3MOC_HSsaQBMJ2-14" target="U4qVRm3MOC_HSsaQBMJ2-19">
          <mxGeometry relative="1" as="geometry" />
        </mxCell>
        <mxCell id="U4qVRm3MOC_HSsaQBMJ2-14" value="Can retrieve one trail based on id/name" style="ellipse;whiteSpace=wrap;html=1;fillColor=#fff2cc;strokeColor=#d6b656;" vertex="1" parent="1">
          <mxGeometry x="4723" y="484" width="110" height="60" as="geometry" />
        </mxCell>
        <mxCell id="U4qVRm3MOC_HSsaQBMJ2-188" style="edgeStyle=orthogonalEdgeStyle;rounded=0;orthogonalLoop=1;jettySize=auto;html=1;exitX=1;exitY=0.5;exitDx=0;exitDy=0;entryX=0;entryY=0.5;entryDx=0;entryDy=0;" edge="1" parent="1" source="U4qVRm3MOC_HSsaQBMJ2-15" target="U4qVRm3MOC_HSsaQBMJ2-183">
          <mxGeometry relative="1" as="geometry" />
        </mxCell>
        <mxCell id="U4qVRm3MOC_HSsaQBMJ2-15" value="Create" style="ellipse;whiteSpace=wrap;html=1;fillColor=#dae8fc;strokeColor=#6c8ebf;" vertex="1" parent="1">
          <mxGeometry x="4593" y="344" width="110" height="60" as="geometry" />
        </mxCell>
        <mxCell id="U4qVRm3MOC_HSsaQBMJ2-16" style="edgeStyle=orthogonalEdgeStyle;rounded=0;orthogonalLoop=1;jettySize=auto;html=1;" edge="1" parent="1" source="U4qVRm3MOC_HSsaQBMJ2-17" target="U4qVRm3MOC_HSsaQBMJ2-18">
          <mxGeometry relative="1" as="geometry" />
        </mxCell>
        <mxCell id="U4qVRm3MOC_HSsaQBMJ2-17" value="Can update one attribute" style="ellipse;whiteSpace=wrap;html=1;fillColor=#fff2cc;strokeColor=#d6b656;" vertex="1" parent="1">
          <mxGeometry x="4723" y="414" width="110" height="60" as="geometry" />
        </mxCell>
        <mxCell id="U4qVRm3MOC_HSsaQBMJ2-18" value="Can update all/many attributes" style="ellipse;whiteSpace=wrap;html=1;fillColor=#fff2cc;strokeColor=#d6b656;" vertex="1" parent="1">
          <mxGeometry x="4853" y="414" width="110" height="60" as="geometry" />
        </mxCell>
        <mxCell id="U4qVRm3MOC_HSsaQBMJ2-19" value="Can retrieve all trails" style="ellipse;whiteSpace=wrap;html=1;fillColor=#fff2cc;strokeColor=#d6b656;" vertex="1" parent="1">
          <mxGeometry x="4853" y="484" width="110" height="60" as="geometry" />
        </mxCell>
        <mxCell id="U4qVRm3MOC_HSsaQBMJ2-20" value="" style="shape=umlActor;verticalLabelPosition=bottom;verticalAlign=top;html=1;outlineConnect=0;" vertex="1" parent="1">
          <mxGeometry x="4319" y="852" width="50" height="110" as="geometry" />
        </mxCell>
        <mxCell id="U4qVRm3MOC_HSsaQBMJ2-21" value="" style="endArrow=classic;html=1;rounded=0;entryX=0;entryY=0.5;entryDx=0;entryDy=0;" edge="1" parent="1" target="U4qVRm3MOC_HSsaQBMJ2-94">
          <mxGeometry width="50" height="50" relative="1" as="geometry">
            <mxPoint x="4369" y="907" as="sourcePoint" />
            <mxPoint x="4429" y="907" as="targetPoint" />
          </mxGeometry>
        </mxCell>
        <mxCell id="U4qVRm3MOC_HSsaQBMJ2-22" style="edgeStyle=orthogonalEdgeStyle;rounded=0;orthogonalLoop=1;jettySize=auto;html=1;entryX=0;entryY=0.5;entryDx=0;entryDy=0;exitX=1;exitY=0.5;exitDx=0;exitDy=0;" edge="1" parent="1" source="U4qVRm3MOC_HSsaQBMJ2-23" target="U4qVRm3MOC_HSsaQBMJ2-24">
          <mxGeometry relative="1" as="geometry">
            <mxPoint x="4507" y="990" as="sourcePoint" />
          </mxGeometry>
        </mxCell>
        <mxCell id="U4qVRm3MOC_HSsaQBMJ2-162" style="edgeStyle=orthogonalEdgeStyle;rounded=0;orthogonalLoop=1;jettySize=auto;html=1;entryX=0;entryY=0.5;entryDx=0;entryDy=0;" edge="1" parent="1" source="U4qVRm3MOC_HSsaQBMJ2-23" target="U4qVRm3MOC_HSsaQBMJ2-161">
          <mxGeometry relative="1" as="geometry" />
        </mxCell>
        <mxCell id="U4qVRm3MOC_HSsaQBMJ2-23" value="User authentication" style="ellipse;whiteSpace=wrap;html=1;fillColor=#f8cecc;strokeColor=#b85450;" vertex="1" parent="1">
          <mxGeometry x="4426" y="940" width="110" height="60" as="geometry" />
        </mxCell>
        <mxCell id="U4qVRm3MOC_HSsaQBMJ2-194" style="edgeStyle=orthogonalEdgeStyle;rounded=0;orthogonalLoop=1;jettySize=auto;html=1;exitX=1;exitY=0.5;exitDx=0;exitDy=0;" edge="1" parent="1" source="U4qVRm3MOC_HSsaQBMJ2-24" target="U4qVRm3MOC_HSsaQBMJ2-193">
          <mxGeometry relative="1" as="geometry" />
        </mxCell>
        <mxCell id="U4qVRm3MOC_HSsaQBMJ2-24" value="Log in with user email and password" style="ellipse;whiteSpace=wrap;html=1;fillColor=#dae8fc;strokeColor=#6c8ebf;" vertex="1" parent="1">
          <mxGeometry x="4594" y="990" width="110" height="60" as="geometry" />
        </mxCell>
        <mxCell id="U4qVRm3MOC_HSsaQBMJ2-25" value="" style="shape=umlActor;verticalLabelPosition=bottom;verticalAlign=top;html=1;outlineConnect=0;" vertex="1" parent="1">
          <mxGeometry x="4260" y="-328" width="50" height="110" as="geometry" />
        </mxCell>
        <mxCell id="U4qVRm3MOC_HSsaQBMJ2-26" value="" style="endArrow=classic;html=1;rounded=0;" edge="1" parent="1">
          <mxGeometry width="50" height="50" relative="1" as="geometry">
            <mxPoint x="4300" y="-273.48" as="sourcePoint" />
            <mxPoint x="4360" y="-273.48" as="targetPoint" />
          </mxGeometry>
        </mxCell>
        <mxCell id="U4qVRm3MOC_HSsaQBMJ2-27" style="edgeStyle=orthogonalEdgeStyle;rounded=0;orthogonalLoop=1;jettySize=auto;html=1;exitX=1;exitY=0.5;exitDx=0;exitDy=0;entryX=0;entryY=0.5;entryDx=0;entryDy=0;" edge="1" parent="1" source="U4qVRm3MOC_HSsaQBMJ2-31" target="U4qVRm3MOC_HSsaQBMJ2-42">
          <mxGeometry relative="1" as="geometry" />
        </mxCell>
        <mxCell id="U4qVRm3MOC_HSsaQBMJ2-28" style="edgeStyle=orthogonalEdgeStyle;rounded=0;orthogonalLoop=1;jettySize=auto;html=1;entryX=0;entryY=0.5;entryDx=0;entryDy=0;" edge="1" parent="1" source="U4qVRm3MOC_HSsaQBMJ2-31" target="U4qVRm3MOC_HSsaQBMJ2-34">
          <mxGeometry relative="1" as="geometry" />
        </mxCell>
        <mxCell id="U4qVRm3MOC_HSsaQBMJ2-29" style="edgeStyle=orthogonalEdgeStyle;rounded=0;orthogonalLoop=1;jettySize=auto;html=1;entryX=0;entryY=0.5;entryDx=0;entryDy=0;" edge="1" parent="1" source="U4qVRm3MOC_HSsaQBMJ2-31" target="U4qVRm3MOC_HSsaQBMJ2-33">
          <mxGeometry relative="1" as="geometry">
            <Array as="points">
              <mxPoint x="4500" y="-273" />
              <mxPoint x="4500" y="-378" />
            </Array>
          </mxGeometry>
        </mxCell>
        <mxCell id="U4qVRm3MOC_HSsaQBMJ2-30" style="edgeStyle=orthogonalEdgeStyle;rounded=0;orthogonalLoop=1;jettySize=auto;html=1;entryX=0;entryY=0.5;entryDx=0;entryDy=0;" edge="1" parent="1" source="U4qVRm3MOC_HSsaQBMJ2-31" target="U4qVRm3MOC_HSsaQBMJ2-40">
          <mxGeometry relative="1" as="geometry" />
        </mxCell>
        <mxCell id="U4qVRm3MOC_HSsaQBMJ2-31" value="CRUD For Attractions&lt;br&gt;(Admin only except Retrieve)" style="ellipse;whiteSpace=wrap;html=1;fillColor=#f8cecc;strokeColor=#b85450;" vertex="1" parent="1">
          <mxGeometry x="4370" y="-303" width="110" height="60" as="geometry" />
        </mxCell>
        <mxCell id="U4qVRm3MOC_HSsaQBMJ2-32" style="edgeStyle=orthogonalEdgeStyle;rounded=0;orthogonalLoop=1;jettySize=auto;html=1;" edge="1" parent="1" source="U4qVRm3MOC_HSsaQBMJ2-33" target="U4qVRm3MOC_HSsaQBMJ2-36">
          <mxGeometry relative="1" as="geometry" />
        </mxCell>
        <mxCell id="U4qVRm3MOC_HSsaQBMJ2-33" value="Create" style="ellipse;whiteSpace=wrap;html=1;fillColor=#dae8fc;strokeColor=#6c8ebf;" vertex="1" parent="1">
          <mxGeometry x="4520" y="-408" width="110" height="60" as="geometry" />
        </mxCell>
        <mxCell id="U4qVRm3MOC_HSsaQBMJ2-34" value="Delete" style="ellipse;whiteSpace=wrap;html=1;fillColor=#dae8fc;strokeColor=#6c8ebf;" vertex="1" parent="1">
          <mxGeometry x="4520" y="-338" width="110" height="60" as="geometry" />
        </mxCell>
        <mxCell id="U4qVRm3MOC_HSsaQBMJ2-35" style="edgeStyle=orthogonalEdgeStyle;rounded=0;orthogonalLoop=1;jettySize=auto;html=1;entryX=0;entryY=0.5;entryDx=0;entryDy=0;" edge="1" parent="1" source="U4qVRm3MOC_HSsaQBMJ2-36" target="U4qVRm3MOC_HSsaQBMJ2-37">
          <mxGeometry relative="1" as="geometry" />
        </mxCell>
        <mxCell id="U4qVRm3MOC_HSsaQBMJ2-36" value="Create attractions" style="ellipse;whiteSpace=wrap;html=1;fillColor=#fff2cc;strokeColor=#d6b656;" vertex="1" parent="1">
          <mxGeometry x="4650" y="-408" width="110" height="60" as="geometry" />
        </mxCell>
        <mxCell id="U4qVRm3MOC_HSsaQBMJ2-37" value="Can tie attractions to a trail through the link entity by owner of trail or admin" style="ellipse;whiteSpace=wrap;html=1;fillColor=#dae8fc;strokeColor=#6c8ebf;" vertex="1" parent="1">
          <mxGeometry x="4780" y="-408" width="110" height="60" as="geometry" />
        </mxCell>
        <mxCell id="U4qVRm3MOC_HSsaQBMJ2-38" value="Able to update attraction names" style="ellipse;whiteSpace=wrap;html=1;fillColor=#fff2cc;strokeColor=#d6b656;" vertex="1" parent="1">
          <mxGeometry x="4650" y="-268" width="110" height="60" as="geometry" />
        </mxCell>
        <mxCell id="U4qVRm3MOC_HSsaQBMJ2-39" style="edgeStyle=orthogonalEdgeStyle;rounded=0;orthogonalLoop=1;jettySize=auto;html=1;" edge="1" parent="1" source="U4qVRm3MOC_HSsaQBMJ2-40" target="U4qVRm3MOC_HSsaQBMJ2-44">
          <mxGeometry relative="1" as="geometry" />
        </mxCell>
        <mxCell id="U4qVRm3MOC_HSsaQBMJ2-40" value="Retrieve" style="ellipse;whiteSpace=wrap;html=1;fillColor=#dae8fc;strokeColor=#6c8ebf;" vertex="1" parent="1">
          <mxGeometry x="4520" y="-188" width="110" height="60" as="geometry" />
        </mxCell>
        <mxCell id="U4qVRm3MOC_HSsaQBMJ2-41" style="edgeStyle=orthogonalEdgeStyle;rounded=0;orthogonalLoop=1;jettySize=auto;html=1;" edge="1" parent="1" source="U4qVRm3MOC_HSsaQBMJ2-42" target="U4qVRm3MOC_HSsaQBMJ2-38">
          <mxGeometry relative="1" as="geometry" />
        </mxCell>
        <mxCell id="U4qVRm3MOC_HSsaQBMJ2-42" value="Update" style="ellipse;whiteSpace=wrap;html=1;fillColor=#dae8fc;strokeColor=#6c8ebf;" vertex="1" parent="1">
          <mxGeometry x="4520" y="-268" width="110" height="60" as="geometry" />
        </mxCell>
        <mxCell id="U4qVRm3MOC_HSsaQBMJ2-43" style="edgeStyle=orthogonalEdgeStyle;rounded=0;orthogonalLoop=1;jettySize=auto;html=1;" edge="1" parent="1" source="U4qVRm3MOC_HSsaQBMJ2-44" target="U4qVRm3MOC_HSsaQBMJ2-46">
          <mxGeometry relative="1" as="geometry" />
        </mxCell>
        <mxCell id="U4qVRm3MOC_HSsaQBMJ2-44" value="Able read all attractions" style="ellipse;whiteSpace=wrap;html=1;fillColor=#fff2cc;strokeColor=#d6b656;" vertex="1" parent="1">
          <mxGeometry x="4650" y="-188" width="110" height="60" as="geometry" />
        </mxCell>
        <mxCell id="U4qVRm3MOC_HSsaQBMJ2-45" style="edgeStyle=orthogonalEdgeStyle;rounded=0;orthogonalLoop=1;jettySize=auto;html=1;" edge="1" parent="1" source="U4qVRm3MOC_HSsaQBMJ2-46" target="U4qVRm3MOC_HSsaQBMJ2-48">
          <mxGeometry relative="1" as="geometry" />
        </mxCell>
        <mxCell id="U4qVRm3MOC_HSsaQBMJ2-46" value="Able to read one attraction based on id" style="ellipse;whiteSpace=wrap;html=1;fillColor=#fff2cc;strokeColor=#d6b656;" vertex="1" parent="1">
          <mxGeometry x="4780" y="-188" width="110" height="60" as="geometry" />
        </mxCell>
        <mxCell id="U4qVRm3MOC_HSsaQBMJ2-47" style="edgeStyle=orthogonalEdgeStyle;rounded=0;orthogonalLoop=1;jettySize=auto;html=1;entryX=0;entryY=0.5;entryDx=0;entryDy=0;" edge="1" parent="1" source="U4qVRm3MOC_HSsaQBMJ2-48" target="U4qVRm3MOC_HSsaQBMJ2-49">
          <mxGeometry relative="1" as="geometry" />
        </mxCell>
        <mxCell id="U4qVRm3MOC_HSsaQBMJ2-48" value="Able to read all attractions tied to a single trail" style="ellipse;whiteSpace=wrap;html=1;fillColor=#fff2cc;strokeColor=#d6b656;" vertex="1" parent="1">
          <mxGeometry x="4910" y="-188" width="110" height="60" as="geometry" />
        </mxCell>
        <mxCell id="U4qVRm3MOC_HSsaQBMJ2-49" value="Able to read all trails tied to a single attraction" style="ellipse;whiteSpace=wrap;html=1;fillColor=#fff2cc;strokeColor=#d6b656;" vertex="1" parent="1">
          <mxGeometry x="5040" y="-188" width="110" height="60" as="geometry" />
        </mxCell>
        <mxCell id="U4qVRm3MOC_HSsaQBMJ2-50" style="edgeStyle=orthogonalEdgeStyle;rounded=0;orthogonalLoop=1;jettySize=auto;html=1;exitX=0.5;exitY=1;exitDx=0;exitDy=0;" edge="1" parent="1" source="U4qVRm3MOC_HSsaQBMJ2-38" target="U4qVRm3MOC_HSsaQBMJ2-38">
          <mxGeometry relative="1" as="geometry" />
        </mxCell>
        <mxCell id="U4qVRm3MOC_HSsaQBMJ2-51" value="" style="shape=umlActor;verticalLabelPosition=bottom;verticalAlign=top;html=1;outlineConnect=0;" vertex="1" parent="1">
          <mxGeometry x="4269" y="-660" width="50" height="110" as="geometry" />
        </mxCell>
        <mxCell id="U4qVRm3MOC_HSsaQBMJ2-52" value="" style="endArrow=classic;html=1;rounded=0;" edge="1" parent="1">
          <mxGeometry width="50" height="50" relative="1" as="geometry">
            <mxPoint x="4309" y="-605.48" as="sourcePoint" />
            <mxPoint x="4369" y="-605.48" as="targetPoint" />
          </mxGeometry>
        </mxCell>
        <mxCell id="U4qVRm3MOC_HSsaQBMJ2-53" style="edgeStyle=orthogonalEdgeStyle;rounded=0;orthogonalLoop=1;jettySize=auto;html=1;exitX=1;exitY=0.5;exitDx=0;exitDy=0;entryX=0;entryY=0.5;entryDx=0;entryDy=0;" edge="1" parent="1" source="U4qVRm3MOC_HSsaQBMJ2-57" target="U4qVRm3MOC_HSsaQBMJ2-63">
          <mxGeometry relative="1" as="geometry" />
        </mxCell>
        <mxCell id="U4qVRm3MOC_HSsaQBMJ2-54" style="edgeStyle=orthogonalEdgeStyle;rounded=0;orthogonalLoop=1;jettySize=auto;html=1;entryX=0;entryY=0.5;entryDx=0;entryDy=0;" edge="1" parent="1" source="U4qVRm3MOC_HSsaQBMJ2-57" target="U4qVRm3MOC_HSsaQBMJ2-59">
          <mxGeometry relative="1" as="geometry" />
        </mxCell>
        <mxCell id="U4qVRm3MOC_HSsaQBMJ2-55" style="edgeStyle=orthogonalEdgeStyle;rounded=0;orthogonalLoop=1;jettySize=auto;html=1;entryX=0;entryY=0.5;entryDx=0;entryDy=0;" edge="1" parent="1" source="U4qVRm3MOC_HSsaQBMJ2-57">
          <mxGeometry relative="1" as="geometry">
            <Array as="points">
              <mxPoint x="4509" y="-605" />
              <mxPoint x="4509" y="-710" />
            </Array>
            <mxPoint x="4529" y="-710" as="targetPoint" />
          </mxGeometry>
        </mxCell>
        <mxCell id="U4qVRm3MOC_HSsaQBMJ2-56" style="edgeStyle=orthogonalEdgeStyle;rounded=0;orthogonalLoop=1;jettySize=auto;html=1;entryX=0;entryY=0.5;entryDx=0;entryDy=0;" edge="1" parent="1" source="U4qVRm3MOC_HSsaQBMJ2-57" target="U4qVRm3MOC_HSsaQBMJ2-61">
          <mxGeometry relative="1" as="geometry" />
        </mxCell>
        <mxCell id="U4qVRm3MOC_HSsaQBMJ2-57" value="CRUD For Location Point" style="ellipse;whiteSpace=wrap;html=1;fillColor=#f8cecc;strokeColor=#b85450;" vertex="1" parent="1">
          <mxGeometry x="4379" y="-635" width="110" height="60" as="geometry" />
        </mxCell>
        <mxCell id="U4qVRm3MOC_HSsaQBMJ2-173" style="edgeStyle=orthogonalEdgeStyle;rounded=0;orthogonalLoop=1;jettySize=auto;html=1;" edge="1" parent="1" source="U4qVRm3MOC_HSsaQBMJ2-58" target="U4qVRm3MOC_HSsaQBMJ2-164">
          <mxGeometry relative="1" as="geometry" />
        </mxCell>
        <mxCell id="U4qVRm3MOC_HSsaQBMJ2-58" value="Create" style="ellipse;whiteSpace=wrap;html=1;fillColor=#dae8fc;strokeColor=#6c8ebf;" vertex="1" parent="1">
          <mxGeometry x="4527" y="-740" width="110" height="60" as="geometry" />
        </mxCell>
        <mxCell id="U4qVRm3MOC_HSsaQBMJ2-195" style="edgeStyle=orthogonalEdgeStyle;rounded=0;orthogonalLoop=1;jettySize=auto;html=1;exitX=1;exitY=0.5;exitDx=0;exitDy=0;entryX=0;entryY=0.5;entryDx=0;entryDy=0;" edge="1" parent="1" source="U4qVRm3MOC_HSsaQBMJ2-59" target="U4qVRm3MOC_HSsaQBMJ2-167">
          <mxGeometry relative="1" as="geometry" />
        </mxCell>
        <mxCell id="U4qVRm3MOC_HSsaQBMJ2-59" value="Delete" style="ellipse;whiteSpace=wrap;html=1;fillColor=#dae8fc;strokeColor=#6c8ebf;" vertex="1" parent="1">
          <mxGeometry x="4529" y="-670" width="110" height="60" as="geometry" />
        </mxCell>
        <mxCell id="U4qVRm3MOC_HSsaQBMJ2-202" style="edgeStyle=orthogonalEdgeStyle;rounded=0;orthogonalLoop=1;jettySize=auto;html=1;exitX=1;exitY=0.5;exitDx=0;exitDy=0;" edge="1" parent="1" source="U4qVRm3MOC_HSsaQBMJ2-60" target="U4qVRm3MOC_HSsaQBMJ2-165">
          <mxGeometry relative="1" as="geometry" />
        </mxCell>
        <mxCell id="U4qVRm3MOC_HSsaQBMJ2-60" value="Able to change description and coordinates" style="ellipse;whiteSpace=wrap;html=1;fillColor=#fff2cc;strokeColor=#d6b656;" vertex="1" parent="1">
          <mxGeometry x="4659" y="-600" width="110" height="60" as="geometry" />
        </mxCell>
        <mxCell id="U4qVRm3MOC_HSsaQBMJ2-197" style="edgeStyle=orthogonalEdgeStyle;rounded=0;orthogonalLoop=1;jettySize=auto;html=1;exitX=1;exitY=0.5;exitDx=0;exitDy=0;entryX=0;entryY=0.5;entryDx=0;entryDy=0;" edge="1" parent="1" source="U4qVRm3MOC_HSsaQBMJ2-61" target="U4qVRm3MOC_HSsaQBMJ2-171">
          <mxGeometry relative="1" as="geometry" />
        </mxCell>
        <mxCell id="U4qVRm3MOC_HSsaQBMJ2-61" value="Retrieve" style="ellipse;whiteSpace=wrap;html=1;fillColor=#dae8fc;strokeColor=#6c8ebf;" vertex="1" parent="1">
          <mxGeometry x="4529" y="-520" width="110" height="60" as="geometry" />
        </mxCell>
        <mxCell id="U4qVRm3MOC_HSsaQBMJ2-62" style="edgeStyle=orthogonalEdgeStyle;rounded=0;orthogonalLoop=1;jettySize=auto;html=1;" edge="1" parent="1" source="U4qVRm3MOC_HSsaQBMJ2-63" target="U4qVRm3MOC_HSsaQBMJ2-60">
          <mxGeometry relative="1" as="geometry" />
        </mxCell>
        <mxCell id="U4qVRm3MOC_HSsaQBMJ2-63" value="Update" style="ellipse;whiteSpace=wrap;html=1;fillColor=#dae8fc;strokeColor=#6c8ebf;" vertex="1" parent="1">
          <mxGeometry x="4529" y="-600" width="110" height="60" as="geometry" />
        </mxCell>
        <mxCell id="U4qVRm3MOC_HSsaQBMJ2-64" style="edgeStyle=orthogonalEdgeStyle;rounded=0;orthogonalLoop=1;jettySize=auto;html=1;exitX=0.5;exitY=1;exitDx=0;exitDy=0;" edge="1" parent="1" source="U4qVRm3MOC_HSsaQBMJ2-60" target="U4qVRm3MOC_HSsaQBMJ2-60">
          <mxGeometry relative="1" as="geometry" />
        </mxCell>
        <mxCell id="U4qVRm3MOC_HSsaQBMJ2-65" style="edgeStyle=orthogonalEdgeStyle;rounded=0;orthogonalLoop=1;jettySize=auto;html=1;entryX=0.5;entryY=1;entryDx=0;entryDy=0;" edge="1" parent="1" source="U4qVRm3MOC_HSsaQBMJ2-68" target="U4qVRm3MOC_HSsaQBMJ2-37">
          <mxGeometry relative="1" as="geometry" />
        </mxCell>
        <mxCell id="U4qVRm3MOC_HSsaQBMJ2-66" style="edgeStyle=orthogonalEdgeStyle;rounded=0;orthogonalLoop=1;jettySize=auto;html=1;entryX=0.5;entryY=0;entryDx=0;entryDy=0;" edge="1" parent="1" source="U4qVRm3MOC_HSsaQBMJ2-68" target="U4qVRm3MOC_HSsaQBMJ2-48">
          <mxGeometry relative="1" as="geometry" />
        </mxCell>
        <mxCell id="U4qVRm3MOC_HSsaQBMJ2-67" style="edgeStyle=orthogonalEdgeStyle;rounded=0;orthogonalLoop=1;jettySize=auto;html=1;entryX=0.5;entryY=0;entryDx=0;entryDy=0;" edge="1" parent="1" source="U4qVRm3MOC_HSsaQBMJ2-68" target="U4qVRm3MOC_HSsaQBMJ2-49">
          <mxGeometry relative="1" as="geometry" />
        </mxCell>
        <mxCell id="U4qVRm3MOC_HSsaQBMJ2-68" value="CRUD for TrailAttractions" style="ellipse;whiteSpace=wrap;html=1;fillColor=#f8cecc;strokeColor=#b85450;" vertex="1" parent="1">
          <mxGeometry x="4974" y="-328" width="110" height="60" as="geometry" />
        </mxCell>
        <mxCell id="U4qVRm3MOC_HSsaQBMJ2-69" value="&lt;p style=&quot;margin:0px;margin-top:4px;text-align:center;&quot;&gt;&lt;b&gt;Trail&lt;/b&gt;&lt;/p&gt;&lt;hr size=&quot;1&quot; style=&quot;border-style:solid;&quot;&gt;&lt;p style=&quot;margin:0px;margin-left:4px;&quot;&gt;trail_id: integer,&lt;/p&gt;&lt;p style=&quot;margin:0px;margin-left:4px;&quot;&gt;owner_id: integer,&lt;/p&gt;&lt;p style=&quot;margin:0px;margin-left:4px;&quot;&gt;trail_name: string (255),&lt;/p&gt;&lt;p style=&quot;margin:0px;margin-left:4px;&quot;&gt;summary: string (255),&lt;/p&gt;&lt;p style=&quot;margin:0px;margin-left:4px;&quot;&gt;description: string (1500),&lt;/p&gt;&lt;p style=&quot;margin:0px;margin-left:4px;&quot;&gt;location: string (255),&lt;/p&gt;&lt;p style=&quot;margin:0px;margin-left:4px;&quot;&gt;traffic: string (8),&lt;/p&gt;&lt;p style=&quot;margin:0px;margin-left:4px;&quot;&gt;difficulty: string (8),&lt;/p&gt;&lt;p style=&quot;margin:0px;margin-left:4px;&quot;&gt;length: float,&lt;/p&gt;&lt;p style=&quot;margin:0px;margin-left:4px;&quot;&gt;duration: string (5),&lt;/p&gt;&lt;p style=&quot;margin:0px;margin-left:4px;&quot;&gt;elevation_gain: integer,&lt;/p&gt;&lt;p style=&quot;margin:0px;margin-left:4px;&quot;&gt;route_type: string(14),&lt;/p&gt;&lt;hr size=&quot;1&quot; style=&quot;border-style:solid;&quot;&gt;&lt;p style=&quot;margin:0px;margin-left:4px;&quot;&gt;create(),&lt;/p&gt;&lt;p style=&quot;margin:0px;margin-left:4px;&quot;&gt;read_one(trail_id),&lt;/p&gt;&lt;p style=&quot;margin:0px;margin-left:4px;&quot;&gt;read_all(name=None),&lt;/p&gt;&lt;p style=&quot;margin:0px;margin-left:4px;&quot;&gt;update(trail_id),&lt;/p&gt;&lt;p style=&quot;margin:0px;margin-left:4px;&quot;&gt;delete(trail_id),&lt;/p&gt;" style="verticalAlign=top;align=left;overflow=fill;html=1;whiteSpace=wrap;fillColor=#dae8fc;strokeColor=#6c8ebf;" vertex="1" parent="1">
          <mxGeometry x="6220" y="-816" width="160" height="290" as="geometry" />
        </mxCell>
        <mxCell id="U4qVRm3MOC_HSsaQBMJ2-70" value="&lt;p style=&quot;margin:0px;margin-top:4px;text-align:center;&quot;&gt;&lt;b&gt;User&lt;/b&gt;&lt;/p&gt;&lt;hr size=&quot;1&quot; style=&quot;border-style:solid;&quot;&gt;&lt;p style=&quot;margin:0px;margin-left:4px;&quot;&gt;user_id: integer,&lt;/p&gt;&lt;p style=&quot;margin:0px;margin-left:4px;&quot;&gt;username: string (255),&lt;/p&gt;&lt;p style=&quot;margin:0px;margin-left:4px;&quot;&gt;email: string (255),&lt;/p&gt;&lt;p style=&quot;margin:0px;margin-left:4px;&quot;&gt;password: string (255),&lt;/p&gt;&lt;p style=&quot;margin:0px;margin-left:4px;&quot;&gt;role: string (255),&lt;/p&gt;&lt;hr size=&quot;1&quot; style=&quot;border-style:solid;&quot;&gt;&lt;p style=&quot;margin:0px;margin-left:4px;&quot;&gt;create(),&lt;/p&gt;&lt;p style=&quot;margin:0px;margin-left:4px;&quot;&gt;read_one(user_id),&lt;/p&gt;&lt;p style=&quot;margin:0px;margin-left:4px;&quot;&gt;read_all(name=None),&lt;/p&gt;&lt;p style=&quot;margin:0px;margin-left:4px;&quot;&gt;update(user_id),&lt;/p&gt;&lt;p style=&quot;margin:0px;margin-left:4px;&quot;&gt;delete(user_id),&lt;/p&gt;&lt;p style=&quot;margin:0px;margin-left:4px;&quot;&gt;authenication(),&lt;/p&gt;&lt;p style=&quot;margin:0px;margin-left:4px;&quot;&gt;&lt;br&gt;&lt;/p&gt;" style="verticalAlign=top;align=left;overflow=fill;html=1;whiteSpace=wrap;fillColor=#dae8fc;strokeColor=#6c8ebf;" vertex="1" parent="1">
          <mxGeometry x="6460" y="-736" width="160" height="210" as="geometry" />
        </mxCell>
        <mxCell id="U4qVRm3MOC_HSsaQBMJ2-71" value="&lt;p style=&quot;margin:0px;margin-top:4px;text-align:center;&quot;&gt;&lt;b&gt;Location Point&lt;/b&gt;&lt;/p&gt;&lt;hr size=&quot;1&quot; style=&quot;border-style:solid;&quot;&gt;&lt;p style=&quot;margin:0px;margin-left:4px;&quot;&gt;location_point_id: integer,&lt;/p&gt;&lt;p style=&quot;margin:0px;margin-left:4px;&quot;&gt;latitude: decimal (precision:9,scale: 6),&lt;/p&gt;&lt;p style=&quot;margin:0px;margin-left:4px;&quot;&gt;&lt;span style=&quot;background-color: initial;&quot;&gt;longitude: decimal (precision:9, scale 6),&lt;/span&gt;&lt;/p&gt;&lt;p style=&quot;margin:0px;margin-left:4px;&quot;&gt;&lt;span style=&quot;background-color: initial;&quot;&gt;description: string (255),&lt;/span&gt;&lt;/p&gt;&lt;hr size=&quot;1&quot; style=&quot;border-style:solid;&quot;&gt;&lt;p style=&quot;margin:0px;margin-left:4px;&quot;&gt;create(),&lt;/p&gt;&lt;p style=&quot;margin:0px;margin-left:4px;&quot;&gt;read_one(location_point_id),&lt;/p&gt;&lt;p style=&quot;margin:0px;margin-left:4px;&quot;&gt;read_all(name=None),&lt;/p&gt;&lt;p style=&quot;margin:0px;margin-left:4px;&quot;&gt;update(location_point_id),&lt;/p&gt;&lt;p style=&quot;margin:0px;margin-left:4px;&quot;&gt;delete(location_point_id),&lt;/p&gt;" style="verticalAlign=top;align=left;overflow=fill;html=1;whiteSpace=wrap;fillColor=#dae8fc;strokeColor=#6c8ebf;" vertex="1" parent="1">
          <mxGeometry x="5990" y="-446" width="160" height="228" as="geometry" />
        </mxCell>
        <mxCell id="U4qVRm3MOC_HSsaQBMJ2-72" value="&lt;p style=&quot;margin:0px;margin-top:4px;text-align:center;&quot;&gt;&lt;b&gt;TrailAttraction&lt;/b&gt;&lt;/p&gt;&lt;hr size=&quot;1&quot; style=&quot;border-style:solid;&quot;&gt;&lt;p style=&quot;margin:0px;margin-left:4px;&quot;&gt;attraction_id: integer.,&lt;/p&gt;&lt;p style=&quot;margin:0px;margin-left:4px;&quot;&gt;trail_id: integer,&lt;/p&gt;&lt;hr size=&quot;1&quot; style=&quot;border-style:solid;&quot;&gt;&lt;p style=&quot;margin:0px;margin-left:4px;&quot;&gt;create(),&lt;/p&gt;&lt;p style=&quot;margin:0px;margin-left:4px;&quot;&gt;read_attractions_or_trails&lt;/p&gt;&lt;p style=&quot;margin:0px;margin-left:4px;&quot;&gt;(id,type),&lt;/p&gt;&lt;p style=&quot;margin:0px;margin-left:4px;&quot;&gt;read_all(),&lt;/p&gt;&lt;p style=&quot;margin:0px;margin-left:4px;&quot;&gt;delete_all_tied_to_trail(),&lt;/p&gt;&lt;p style=&quot;margin:0px;margin-left:4px;&quot;&gt;delete(),&lt;/p&gt;&lt;p style=&quot;margin:0px;margin-left:4px;&quot;&gt;&lt;br&gt;&lt;/p&gt;" style="verticalAlign=top;align=left;overflow=fill;html=1;whiteSpace=wrap;fillColor=#dae8fc;strokeColor=#6c8ebf;" vertex="1" parent="1">
          <mxGeometry x="6220" y="-446" width="160" height="160" as="geometry" />
        </mxCell>
        <mxCell id="U4qVRm3MOC_HSsaQBMJ2-73" value="&lt;p style=&quot;margin:0px;margin-top:4px;text-align:center;&quot;&gt;&lt;b&gt;Attractions&lt;/b&gt;&lt;/p&gt;&lt;hr size=&quot;1&quot; style=&quot;border-style:solid;&quot;&gt;&lt;p style=&quot;margin:0px;margin-left:4px;&quot;&gt;attraction_id: integer,&lt;/p&gt;&lt;p style=&quot;margin:0px;margin-left:4px;&quot;&gt;attraction_name: string (255),&lt;/p&gt;&lt;hr size=&quot;1&quot; style=&quot;border-style:solid;&quot;&gt;&lt;p style=&quot;margin:0px;margin-left:4px;&quot;&gt;create().&lt;/p&gt;&lt;p style=&quot;margin:0px;margin-left:4px;&quot;&gt;delete(attraction_id),&lt;/p&gt;&lt;p style=&quot;margin:0px;margin-left:4px;&quot;&gt;read_all(name=None)&lt;/p&gt;&lt;p style=&quot;margin:0px;margin-left:4px;&quot;&gt;read_one(attraction_id)&lt;/p&gt;&lt;p style=&quot;margin:0px;margin-left:4px;&quot;&gt;update(attraction_id),&lt;/p&gt;&lt;p style=&quot;margin:0px;margin-left:4px;&quot;&gt;&lt;br&gt;&lt;/p&gt;" style="verticalAlign=top;align=left;overflow=fill;html=1;whiteSpace=wrap;fillColor=#dae8fc;strokeColor=#6c8ebf;" vertex="1" parent="1">
          <mxGeometry x="6460" y="-446" width="160" height="160" as="geometry" />
        </mxCell>
        <mxCell id="U4qVRm3MOC_HSsaQBMJ2-74" value="" style="endArrow=none;html=1;rounded=0;" edge="1" parent="1">
          <mxGeometry width="50" height="50" relative="1" as="geometry">
            <mxPoint x="6310.16" y="-446" as="sourcePoint" />
            <mxPoint x="6300.16" y="-456" as="targetPoint" />
            <Array as="points">
              <mxPoint x="6300.16" y="-456" />
            </Array>
          </mxGeometry>
        </mxCell>
        <mxCell id="U4qVRm3MOC_HSsaQBMJ2-75" value="" style="endArrow=none;html=1;rounded=0;exitX=0.5;exitY=0;exitDx=0;exitDy=0;" edge="1" parent="1">
          <mxGeometry width="50" height="50" relative="1" as="geometry">
            <mxPoint x="6300.0599999999995" y="-446" as="sourcePoint" />
            <mxPoint x="6299.9" y="-486" as="targetPoint" />
          </mxGeometry>
        </mxCell>
        <mxCell id="U4qVRm3MOC_HSsaQBMJ2-76" value="" style="endArrow=none;html=1;rounded=0;entryX=1;entryY=0.5;entryDx=0;entryDy=0;" edge="1" parent="1" target="U4qVRm3MOC_HSsaQBMJ2-72">
          <mxGeometry width="50" height="50" relative="1" as="geometry">
            <mxPoint x="6420" y="-366" as="sourcePoint" />
            <mxPoint x="6450" y="-444" as="targetPoint" />
          </mxGeometry>
        </mxCell>
        <mxCell id="U4qVRm3MOC_HSsaQBMJ2-77" value="" style="endArrow=none;html=1;rounded=0;exitX=0.999;exitY=0.565;exitDx=0;exitDy=0;exitPerimeter=0;" edge="1" parent="1" source="U4qVRm3MOC_HSsaQBMJ2-72">
          <mxGeometry width="50" height="50" relative="1" as="geometry">
            <mxPoint x="6380" y="-354" as="sourcePoint" />
            <mxPoint x="6390" y="-366" as="targetPoint" />
            <Array as="points" />
          </mxGeometry>
        </mxCell>
        <mxCell id="U4qVRm3MOC_HSsaQBMJ2-78" value="" style="endArrow=none;html=1;rounded=0;exitX=1;exitY=0.75;exitDx=0;exitDy=0;" edge="1" parent="1">
          <mxGeometry width="50" height="50" relative="1" as="geometry">
            <mxPoint x="6380" y="-594" as="sourcePoint" />
            <mxPoint x="6390" y="-606" as="targetPoint" />
          </mxGeometry>
        </mxCell>
        <mxCell id="U4qVRm3MOC_HSsaQBMJ2-79" value="" style="endArrow=none;html=1;rounded=0;exitX=1;exitY=0.5;exitDx=0;exitDy=0;" edge="1" parent="1">
          <mxGeometry width="50" height="50" relative="1" as="geometry">
            <mxPoint x="6380" y="-606" as="sourcePoint" />
            <mxPoint x="6420" y="-606" as="targetPoint" />
          </mxGeometry>
        </mxCell>
        <mxCell id="U4qVRm3MOC_HSsaQBMJ2-80" value="" style="endArrow=none;html=1;rounded=0;exitX=1;exitY=0.25;exitDx=0;exitDy=0;" edge="1" parent="1">
          <mxGeometry width="50" height="50" relative="1" as="geometry">
            <mxPoint x="6380" y="-614" as="sourcePoint" />
            <mxPoint x="6390" y="-606" as="targetPoint" />
          </mxGeometry>
        </mxCell>
        <mxCell id="U4qVRm3MOC_HSsaQBMJ2-81" value="" style="endArrow=none;dashed=1;html=1;dashPattern=1 3;strokeWidth=2;rounded=0;" edge="1" parent="1">
          <mxGeometry width="50" height="50" relative="1" as="geometry">
            <mxPoint x="6420" y="-606" as="sourcePoint" />
            <mxPoint x="6460" y="-606" as="targetPoint" />
          </mxGeometry>
        </mxCell>
        <mxCell id="U4qVRm3MOC_HSsaQBMJ2-82" value="" style="endArrow=none;dashed=1;html=1;dashPattern=1 3;strokeWidth=2;rounded=0;" edge="1" parent="1">
          <mxGeometry width="50" height="50" relative="1" as="geometry">
            <mxPoint x="6300" y="-526" as="sourcePoint" />
            <mxPoint x="6300" y="-486" as="targetPoint" />
          </mxGeometry>
        </mxCell>
        <mxCell id="U4qVRm3MOC_HSsaQBMJ2-83" value="" style="endArrow=none;html=1;rounded=0;entryX=1.001;entryY=0.438;entryDx=0;entryDy=0;entryPerimeter=0;" edge="1" parent="1" target="U4qVRm3MOC_HSsaQBMJ2-72">
          <mxGeometry width="50" height="50" relative="1" as="geometry">
            <mxPoint x="6390" y="-366" as="sourcePoint" />
            <mxPoint x="6379.999999999999" y="-373.68000000000006" as="targetPoint" />
            <Array as="points" />
          </mxGeometry>
        </mxCell>
        <mxCell id="U4qVRm3MOC_HSsaQBMJ2-84" value="" style="endArrow=none;html=1;rounded=0;exitX=0.414;exitY=-0.02;exitDx=0;exitDy=0;exitPerimeter=0;" edge="1" parent="1">
          <mxGeometry width="50" height="50" relative="1" as="geometry">
            <mxPoint x="6289.84" y="-446.00000000000017" as="sourcePoint" />
            <mxPoint x="6300.16" y="-455.2" as="targetPoint" />
          </mxGeometry>
        </mxCell>
        <mxCell id="U4qVRm3MOC_HSsaQBMJ2-85" value="" style="endArrow=none;html=1;rounded=0;exitX=0.5;exitY=1;exitDx=0;exitDy=0;" edge="1" parent="1" source="U4qVRm3MOC_HSsaQBMJ2-126">
          <mxGeometry width="50" height="50" relative="1" as="geometry">
            <mxPoint x="6040" y="-516.0040000000001" as="sourcePoint" />
            <mxPoint x="6060" y="-486" as="targetPoint" />
          </mxGeometry>
        </mxCell>
        <mxCell id="U4qVRm3MOC_HSsaQBMJ2-86" value="" style="endArrow=none;dashed=1;html=1;dashPattern=1 3;strokeWidth=2;rounded=0;exitX=0;exitY=0.5;exitDx=0;exitDy=0;" edge="1" parent="1" source="U4qVRm3MOC_HSsaQBMJ2-73">
          <mxGeometry width="50" height="50" relative="1" as="geometry">
            <mxPoint x="6450" y="-364" as="sourcePoint" />
            <mxPoint x="6420" y="-366" as="targetPoint" />
          </mxGeometry>
        </mxCell>
        <mxCell id="U4qVRm3MOC_HSsaQBMJ2-87" value="" style="endArrow=none;dashed=1;html=1;dashPattern=1 3;strokeWidth=2;rounded=0;entryX=0.44;entryY=-0.009;entryDx=0;entryDy=0;entryPerimeter=0;" edge="1" parent="1" target="U4qVRm3MOC_HSsaQBMJ2-71">
          <mxGeometry width="50" height="50" relative="1" as="geometry">
            <mxPoint x="6060" y="-486" as="sourcePoint" />
            <mxPoint x="6100" y="-486" as="targetPoint" />
          </mxGeometry>
        </mxCell>
        <mxCell id="U4qVRm3MOC_HSsaQBMJ2-88" value="" style="endArrow=none;html=1;rounded=0;exitX=0.556;exitY=0.997;exitDx=0;exitDy=0;exitPerimeter=0;" edge="1" parent="1" source="U4qVRm3MOC_HSsaQBMJ2-126">
          <mxGeometry width="50" height="50" relative="1" as="geometry">
            <mxPoint x="6070" y="-496" as="sourcePoint" />
            <mxPoint x="6060" y="-516" as="targetPoint" />
          </mxGeometry>
        </mxCell>
        <mxCell id="U4qVRm3MOC_HSsaQBMJ2-89" value="" style="endArrow=none;html=1;rounded=0;exitX=0.427;exitY=0.998;exitDx=0;exitDy=0;exitPerimeter=0;" edge="1" parent="1" source="U4qVRm3MOC_HSsaQBMJ2-126">
          <mxGeometry width="50" height="50" relative="1" as="geometry">
            <mxPoint x="6080" y="-486" as="sourcePoint" />
            <mxPoint x="6060" y="-516" as="targetPoint" />
          </mxGeometry>
        </mxCell>
        <mxCell id="U4qVRm3MOC_HSsaQBMJ2-90" style="edgeStyle=orthogonalEdgeStyle;rounded=0;orthogonalLoop=1;jettySize=auto;html=1;entryX=0;entryY=0.5;entryDx=0;entryDy=0;" edge="1" parent="1" source="U4qVRm3MOC_HSsaQBMJ2-94" target="U4qVRm3MOC_HSsaQBMJ2-95">
          <mxGeometry relative="1" as="geometry" />
        </mxCell>
        <mxCell id="U4qVRm3MOC_HSsaQBMJ2-91" style="edgeStyle=orthogonalEdgeStyle;rounded=0;orthogonalLoop=1;jettySize=auto;html=1;entryX=0;entryY=0.5;entryDx=0;entryDy=0;" edge="1" parent="1" source="U4qVRm3MOC_HSsaQBMJ2-94" target="U4qVRm3MOC_HSsaQBMJ2-97">
          <mxGeometry relative="1" as="geometry" />
        </mxCell>
        <mxCell id="U4qVRm3MOC_HSsaQBMJ2-92" style="edgeStyle=orthogonalEdgeStyle;rounded=0;orthogonalLoop=1;jettySize=auto;html=1;entryX=0;entryY=0.5;entryDx=0;entryDy=0;" edge="1" parent="1" source="U4qVRm3MOC_HSsaQBMJ2-94" target="U4qVRm3MOC_HSsaQBMJ2-96">
          <mxGeometry relative="1" as="geometry" />
        </mxCell>
        <mxCell id="U4qVRm3MOC_HSsaQBMJ2-93" style="edgeStyle=orthogonalEdgeStyle;rounded=0;orthogonalLoop=1;jettySize=auto;html=1;" edge="1" parent="1" source="U4qVRm3MOC_HSsaQBMJ2-94" target="U4qVRm3MOC_HSsaQBMJ2-98">
          <mxGeometry relative="1" as="geometry" />
        </mxCell>
        <mxCell id="U4qVRm3MOC_HSsaQBMJ2-94" value="CRUD Operations with user" style="ellipse;whiteSpace=wrap;html=1;fillColor=#f8cecc;strokeColor=#b85450;" vertex="1" parent="1">
          <mxGeometry x="4429" y="823" width="110" height="60" as="geometry" />
        </mxCell>
        <mxCell id="U4qVRm3MOC_HSsaQBMJ2-95" value="Create" style="ellipse;whiteSpace=wrap;html=1;fillColor=#dae8fc;strokeColor=#6c8ebf;" vertex="1" parent="1">
          <mxGeometry x="4594" y="666" width="110" height="60" as="geometry" />
        </mxCell>
        <mxCell id="U4qVRm3MOC_HSsaQBMJ2-191" style="edgeStyle=orthogonalEdgeStyle;rounded=0;orthogonalLoop=1;jettySize=auto;html=1;entryX=0;entryY=0.5;entryDx=0;entryDy=0;" edge="1" parent="1" source="U4qVRm3MOC_HSsaQBMJ2-96" target="U4qVRm3MOC_HSsaQBMJ2-180">
          <mxGeometry relative="1" as="geometry" />
        </mxCell>
        <mxCell id="U4qVRm3MOC_HSsaQBMJ2-96" value="Delete" style="ellipse;whiteSpace=wrap;html=1;fillColor=#dae8fc;strokeColor=#6c8ebf;" vertex="1" parent="1">
          <mxGeometry x="4594" y="900" width="110" height="60" as="geometry" />
        </mxCell>
        <mxCell id="U4qVRm3MOC_HSsaQBMJ2-177" style="edgeStyle=orthogonalEdgeStyle;rounded=0;orthogonalLoop=1;jettySize=auto;html=1;" edge="1" parent="1" source="U4qVRm3MOC_HSsaQBMJ2-97" target="U4qVRm3MOC_HSsaQBMJ2-175">
          <mxGeometry relative="1" as="geometry" />
        </mxCell>
        <mxCell id="U4qVRm3MOC_HSsaQBMJ2-97" value="Retrieve" style="ellipse;whiteSpace=wrap;html=1;fillColor=#dae8fc;strokeColor=#6c8ebf;" vertex="1" parent="1">
          <mxGeometry x="4594" y="747" width="110" height="60" as="geometry" />
        </mxCell>
        <mxCell id="U4qVRm3MOC_HSsaQBMJ2-179" style="edgeStyle=orthogonalEdgeStyle;rounded=0;orthogonalLoop=1;jettySize=auto;html=1;entryX=0;entryY=0.5;entryDx=0;entryDy=0;" edge="1" parent="1" source="U4qVRm3MOC_HSsaQBMJ2-98" target="U4qVRm3MOC_HSsaQBMJ2-174">
          <mxGeometry relative="1" as="geometry" />
        </mxCell>
        <mxCell id="U4qVRm3MOC_HSsaQBMJ2-98" value="Update" style="ellipse;whiteSpace=wrap;html=1;fillColor=#dae8fc;strokeColor=#6c8ebf;" vertex="1" parent="1">
          <mxGeometry x="4594" y="823" width="110" height="60" as="geometry" />
        </mxCell>
        <mxCell id="U4qVRm3MOC_HSsaQBMJ2-99" value="" style="endArrow=classic;html=1;rounded=0;entryX=0;entryY=0.5;entryDx=0;entryDy=0;" edge="1" parent="1" target="U4qVRm3MOC_HSsaQBMJ2-23">
          <mxGeometry width="50" height="50" relative="1" as="geometry">
            <mxPoint x="4370" y="907" as="sourcePoint" />
            <mxPoint x="4429.000000000042" y="990" as="targetPoint" />
          </mxGeometry>
        </mxCell>
        <mxCell id="U4qVRm3MOC_HSsaQBMJ2-100" value="" style="endArrow=none;html=1;rounded=0;" edge="1" parent="1">
          <mxGeometry width="50" height="50" relative="1" as="geometry">
            <mxPoint x="3570" y="-490.1307792207793" as="sourcePoint" />
            <mxPoint x="3590" y="-490" as="targetPoint" />
          </mxGeometry>
        </mxCell>
        <mxCell id="U4qVRm3MOC_HSsaQBMJ2-101" value="" style="endArrow=none;html=1;rounded=0;entryX=0;entryY=0.75;entryDx=0;entryDy=0;" edge="1" parent="1">
          <mxGeometry width="50" height="50" relative="1" as="geometry">
            <mxPoint x="3570" y="-480" as="sourcePoint" />
            <mxPoint x="3580" y="-490" as="targetPoint" />
          </mxGeometry>
        </mxCell>
        <mxCell id="U4qVRm3MOC_HSsaQBMJ2-102" value="" style="endArrow=none;html=1;rounded=0;entryX=0;entryY=0.25;entryDx=0;entryDy=0;" edge="1" parent="1">
          <mxGeometry width="50" height="50" relative="1" as="geometry">
            <mxPoint x="3570" y="-500" as="sourcePoint" />
            <mxPoint x="3580" y="-490" as="targetPoint" />
            <Array as="points">
              <mxPoint x="3580" y="-490" />
            </Array>
          </mxGeometry>
        </mxCell>
        <mxCell id="U4qVRm3MOC_HSsaQBMJ2-103" value="" style="endArrow=none;dashed=1;html=1;dashPattern=1 3;strokeWidth=2;rounded=0;entryX=0;entryY=0.45;entryDx=0;entryDy=0;entryPerimeter=0;" edge="1" parent="1" target="U4qVRm3MOC_HSsaQBMJ2-104">
          <mxGeometry width="50" height="50" relative="1" as="geometry">
            <mxPoint x="3590" y="-490" as="sourcePoint" />
            <mxPoint x="3600" y="-490.1307792207793" as="targetPoint" />
          </mxGeometry>
        </mxCell>
        <mxCell id="U4qVRm3MOC_HSsaQBMJ2-104" value="Trail" style="rounded=1;whiteSpace=wrap;html=1;" vertex="1" parent="1">
          <mxGeometry x="3610" y="-508" width="120" height="40" as="geometry" />
        </mxCell>
        <mxCell id="U4qVRm3MOC_HSsaQBMJ2-105" value="User" style="rounded=1;whiteSpace=wrap;html=1;" vertex="1" parent="1">
          <mxGeometry x="3780" y="-508" width="120" height="40" as="geometry" />
        </mxCell>
        <mxCell id="U4qVRm3MOC_HSsaQBMJ2-106" value="Attractions" style="rounded=1;whiteSpace=wrap;html=1;" vertex="1" parent="1">
          <mxGeometry x="3610" y="-318" width="120" height="40" as="geometry" />
        </mxCell>
        <mxCell id="U4qVRm3MOC_HSsaQBMJ2-107" value="" style="endArrow=none;html=1;rounded=0;" edge="1" parent="1">
          <mxGeometry width="50" height="50" relative="1" as="geometry">
            <mxPoint x="3680" y="-408" as="sourcePoint" />
            <mxPoint x="3670" y="-418" as="targetPoint" />
            <Array as="points">
              <mxPoint x="3670" y="-418" />
            </Array>
          </mxGeometry>
        </mxCell>
        <mxCell id="U4qVRm3MOC_HSsaQBMJ2-108" value="" style="endArrow=none;html=1;rounded=0;exitX=0.5;exitY=0;exitDx=0;exitDy=0;" edge="1" parent="1" source="U4qVRm3MOC_HSsaQBMJ2-109">
          <mxGeometry width="50" height="50" relative="1" as="geometry">
            <mxPoint x="3940.5200000000004" y="-469.23" as="sourcePoint" />
            <mxPoint x="3670" y="-438" as="targetPoint" />
          </mxGeometry>
        </mxCell>
        <mxCell id="U4qVRm3MOC_HSsaQBMJ2-109" value="Trail Attractions" style="rounded=1;whiteSpace=wrap;html=1;" vertex="1" parent="1">
          <mxGeometry x="3610" y="-408" width="120" height="40" as="geometry" />
        </mxCell>
        <mxCell id="U4qVRm3MOC_HSsaQBMJ2-110" value="" style="endArrow=none;html=1;rounded=0;" edge="1" parent="1">
          <mxGeometry width="50" height="50" relative="1" as="geometry">
            <mxPoint x="3670" y="-338" as="sourcePoint" />
            <mxPoint x="3670" y="-368" as="targetPoint" />
          </mxGeometry>
        </mxCell>
        <mxCell id="U4qVRm3MOC_HSsaQBMJ2-111" value="" style="endArrow=none;html=1;rounded=0;" edge="1" parent="1">
          <mxGeometry width="50" height="50" relative="1" as="geometry">
            <mxPoint x="3670" y="-358" as="sourcePoint" />
            <mxPoint x="3680" y="-368" as="targetPoint" />
            <Array as="points" />
          </mxGeometry>
        </mxCell>
        <mxCell id="U4qVRm3MOC_HSsaQBMJ2-112" value="" style="endArrow=none;html=1;rounded=0;exitX=1;exitY=0.75;exitDx=0;exitDy=0;" edge="1" parent="1" source="U4qVRm3MOC_HSsaQBMJ2-104">
          <mxGeometry width="50" height="50" relative="1" as="geometry">
            <mxPoint x="3910" y="-478" as="sourcePoint" />
            <mxPoint x="3740" y="-488" as="targetPoint" />
          </mxGeometry>
        </mxCell>
        <mxCell id="U4qVRm3MOC_HSsaQBMJ2-113" value="" style="endArrow=none;html=1;rounded=0;exitX=1;exitY=0.5;exitDx=0;exitDy=0;" edge="1" parent="1" source="U4qVRm3MOC_HSsaQBMJ2-104">
          <mxGeometry width="50" height="50" relative="1" as="geometry">
            <mxPoint x="3909.999999999999" y="-488" as="sourcePoint" />
            <mxPoint x="3750" y="-488" as="targetPoint" />
          </mxGeometry>
        </mxCell>
        <mxCell id="U4qVRm3MOC_HSsaQBMJ2-114" value="" style="endArrow=none;html=1;rounded=0;exitX=1;exitY=0.25;exitDx=0;exitDy=0;" edge="1" parent="1" source="U4qVRm3MOC_HSsaQBMJ2-104">
          <mxGeometry width="50" height="50" relative="1" as="geometry">
            <mxPoint x="3909.999999999999" y="-496.15999999999985" as="sourcePoint" />
            <mxPoint x="3740" y="-488" as="targetPoint" />
          </mxGeometry>
        </mxCell>
        <mxCell id="U4qVRm3MOC_HSsaQBMJ2-115" value="" style="endArrow=none;dashed=1;html=1;dashPattern=1 3;strokeWidth=2;rounded=0;entryX=0;entryY=0.5;entryDx=0;entryDy=0;" edge="1" parent="1" target="U4qVRm3MOC_HSsaQBMJ2-105">
          <mxGeometry width="50" height="50" relative="1" as="geometry">
            <mxPoint x="3750" y="-488" as="sourcePoint" />
            <mxPoint x="3780" y="-488" as="targetPoint" />
          </mxGeometry>
        </mxCell>
        <mxCell id="U4qVRm3MOC_HSsaQBMJ2-116" value="" style="endArrow=none;dashed=1;html=1;dashPattern=1 3;strokeWidth=2;rounded=0;exitX=0.5;exitY=1;exitDx=0;exitDy=0;" edge="1" parent="1" source="U4qVRm3MOC_HSsaQBMJ2-104">
          <mxGeometry width="50" height="50" relative="1" as="geometry">
            <mxPoint x="3740" y="-448" as="sourcePoint" />
            <mxPoint x="3670" y="-438" as="targetPoint" />
          </mxGeometry>
        </mxCell>
        <mxCell id="U4qVRm3MOC_HSsaQBMJ2-117" value="" style="endArrow=none;html=1;rounded=0;entryX=0.409;entryY=1.015;entryDx=0;entryDy=0;entryPerimeter=0;" edge="1" parent="1" target="U4qVRm3MOC_HSsaQBMJ2-109">
          <mxGeometry width="50" height="50" relative="1" as="geometry">
            <mxPoint x="3670" y="-358" as="sourcePoint" />
            <mxPoint x="3760" y="-368" as="targetPoint" />
          </mxGeometry>
        </mxCell>
        <mxCell id="U4qVRm3MOC_HSsaQBMJ2-118" value="" style="endArrow=none;html=1;rounded=0;exitX=0.414;exitY=-0.02;exitDx=0;exitDy=0;exitPerimeter=0;" edge="1" parent="1" source="U4qVRm3MOC_HSsaQBMJ2-109">
          <mxGeometry width="50" height="50" relative="1" as="geometry">
            <mxPoint x="3710" y="-398" as="sourcePoint" />
            <mxPoint x="3670" y="-418" as="targetPoint" />
          </mxGeometry>
        </mxCell>
        <mxCell id="U4qVRm3MOC_HSsaQBMJ2-119" value="TrailLocationPts" style="rounded=1;whiteSpace=wrap;html=1;" vertex="1" parent="1">
          <mxGeometry x="3450" y="-510" width="120" height="40" as="geometry" />
        </mxCell>
        <mxCell id="U4qVRm3MOC_HSsaQBMJ2-120" value="" style="endArrow=none;html=1;rounded=0;entryX=0;entryY=0.5;entryDx=0;entryDy=0;" edge="1" parent="1">
          <mxGeometry width="50" height="50" relative="1" as="geometry">
            <mxPoint x="3430" y="-490" as="sourcePoint" />
            <mxPoint x="3450" y="-490.16" as="targetPoint" />
          </mxGeometry>
        </mxCell>
        <mxCell id="U4qVRm3MOC_HSsaQBMJ2-121" value="" style="endArrow=none;html=1;rounded=0;entryX=0;entryY=0.75;entryDx=0;entryDy=0;" edge="1" parent="1">
          <mxGeometry width="50" height="50" relative="1" as="geometry">
            <mxPoint x="3440" y="-490" as="sourcePoint" />
            <mxPoint x="3450" y="-480" as="targetPoint" />
          </mxGeometry>
        </mxCell>
        <mxCell id="U4qVRm3MOC_HSsaQBMJ2-122" value="" style="endArrow=none;html=1;rounded=0;entryX=0;entryY=0.25;entryDx=0;entryDy=0;" edge="1" parent="1">
          <mxGeometry width="50" height="50" relative="1" as="geometry">
            <mxPoint x="3440" y="-490" as="sourcePoint" />
            <mxPoint x="3450" y="-500" as="targetPoint" />
            <Array as="points">
              <mxPoint x="3450" y="-500" />
            </Array>
          </mxGeometry>
        </mxCell>
        <mxCell id="U4qVRm3MOC_HSsaQBMJ2-123" value="" style="endArrow=none;dashed=1;html=1;dashPattern=1 3;strokeWidth=2;rounded=0;" edge="1" parent="1">
          <mxGeometry width="50" height="50" relative="1" as="geometry">
            <mxPoint x="3669.84" y="-318" as="sourcePoint" />
            <mxPoint x="3669.84" y="-338" as="targetPoint" />
          </mxGeometry>
        </mxCell>
        <mxCell id="U4qVRm3MOC_HSsaQBMJ2-124" value="" style="endArrow=none;dashed=1;html=1;dashPattern=1 3;strokeWidth=2;rounded=0;" edge="1" parent="1">
          <mxGeometry width="50" height="50" relative="1" as="geometry">
            <mxPoint x="3404" y="-490.16" as="sourcePoint" />
            <mxPoint x="3430" y="-490" as="targetPoint" />
          </mxGeometry>
        </mxCell>
        <mxCell id="U4qVRm3MOC_HSsaQBMJ2-125" value="LocationPoints" style="rounded=1;whiteSpace=wrap;html=1;" vertex="1" parent="1">
          <mxGeometry x="3290" y="-510" width="120" height="40" as="geometry" />
        </mxCell>
        <mxCell id="U4qVRm3MOC_HSsaQBMJ2-126" value="&lt;p style=&quot;margin:0px;margin-top:4px;text-align:center;&quot;&gt;&lt;b&gt;Trail Location Point&lt;/b&gt;&lt;/p&gt;&lt;hr size=&quot;1&quot; style=&quot;border-style:solid;&quot;&gt;&lt;p style=&quot;margin:0px;margin-left:4px;&quot;&gt;location_point_id: integer,&lt;/p&gt;&lt;p style=&quot;margin:0px;margin-left:4px;&quot;&gt;trail_id: integer&lt;/p&gt;&lt;p style=&quot;margin:0px;margin-left:4px;&quot;&gt;order_number: integer&lt;/p&gt;&lt;hr size=&quot;1&quot; style=&quot;border-style:solid;&quot;&gt;&lt;p style=&quot;margin:0px;margin-left:4px;&quot;&gt;create(),&lt;/p&gt;&lt;p style=&quot;margin:0px;margin-left:4px;&quot;&gt;read_one(),&lt;/p&gt;&lt;p style=&quot;margin:0px;margin-left:4px;&quot;&gt;read_all(),&lt;/p&gt;&lt;p style=&quot;margin:0px;margin-left:4px;&quot;&gt;update(location_point_id, trail_id),&lt;/p&gt;&lt;p style=&quot;margin:0px;margin-left:4px;&quot;&gt;delete(location_point_id, trail id),&lt;/p&gt;&lt;p style=&quot;margin:0px;margin-left:4px;&quot;&gt;deletel_all_tied_to_trails&lt;br&gt;(trail_id)&lt;/p&gt;&lt;p style=&quot;margin:0px;margin-left:4px;&quot;&gt;read_locationpt_or_trails&lt;br&gt;(id,type)&lt;/p&gt;" style="verticalAlign=top;align=left;overflow=fill;html=1;whiteSpace=wrap;fillColor=#dae8fc;strokeColor=#6c8ebf;" vertex="1" parent="1">
          <mxGeometry x="5980" y="-770" width="160" height="244" as="geometry" />
        </mxCell>
        <mxCell id="U4qVRm3MOC_HSsaQBMJ2-127" value="" style="endArrow=none;html=1;rounded=0;entryX=-0.004;entryY=0.725;entryDx=0;entryDy=0;entryPerimeter=0;" edge="1" parent="1">
          <mxGeometry width="50" height="50" relative="1" as="geometry">
            <mxPoint x="6140" y="-606" as="sourcePoint" />
            <mxPoint x="6179.360000000001" y="-605.75" as="targetPoint" />
          </mxGeometry>
        </mxCell>
        <mxCell id="U4qVRm3MOC_HSsaQBMJ2-128" value="" style="endArrow=none;dashed=1;html=1;dashPattern=1 3;strokeWidth=2;rounded=0;" edge="1" parent="1">
          <mxGeometry width="50" height="50" relative="1" as="geometry">
            <mxPoint x="6180" y="-606" as="sourcePoint" />
            <mxPoint x="6220" y="-606" as="targetPoint" />
          </mxGeometry>
        </mxCell>
        <mxCell id="U4qVRm3MOC_HSsaQBMJ2-129" value="" style="endArrow=none;html=1;rounded=0;" edge="1" parent="1">
          <mxGeometry width="50" height="50" relative="1" as="geometry">
            <mxPoint x="6140" y="-594" as="sourcePoint" />
            <mxPoint x="6150" y="-606" as="targetPoint" />
          </mxGeometry>
        </mxCell>
        <mxCell id="U4qVRm3MOC_HSsaQBMJ2-130" value="" style="endArrow=none;html=1;rounded=0;" edge="1" parent="1">
          <mxGeometry width="50" height="50" relative="1" as="geometry">
            <mxPoint x="6150" y="-606" as="sourcePoint" />
            <mxPoint x="6140" y="-616" as="targetPoint" />
          </mxGeometry>
        </mxCell>
        <mxCell id="U4qVRm3MOC_HSsaQBMJ2-161" value="Logged in user&#39;s access to api is registed based on role" style="ellipse;whiteSpace=wrap;html=1;fillColor=#dae8fc;strokeColor=#6c8ebf;" vertex="1" parent="1">
          <mxGeometry x="4594" y="1080" width="110" height="60" as="geometry" />
        </mxCell>
        <mxCell id="U4qVRm3MOC_HSsaQBMJ2-204" style="edgeStyle=orthogonalEdgeStyle;rounded=0;orthogonalLoop=1;jettySize=auto;html=1;entryX=1;entryY=0.5;entryDx=0;entryDy=0;" edge="1" parent="1" source="U4qVRm3MOC_HSsaQBMJ2-163" target="U4qVRm3MOC_HSsaQBMJ2-166">
          <mxGeometry relative="1" as="geometry" />
        </mxCell>
        <mxCell id="U4qVRm3MOC_HSsaQBMJ2-205" style="edgeStyle=orthogonalEdgeStyle;rounded=0;orthogonalLoop=1;jettySize=auto;html=1;entryX=0.5;entryY=0;entryDx=0;entryDy=0;" edge="1" parent="1" source="U4qVRm3MOC_HSsaQBMJ2-163" target="U4qVRm3MOC_HSsaQBMJ2-168">
          <mxGeometry relative="1" as="geometry" />
        </mxCell>
        <mxCell id="U4qVRm3MOC_HSsaQBMJ2-206" style="edgeStyle=orthogonalEdgeStyle;rounded=0;orthogonalLoop=1;jettySize=auto;html=1;entryX=0.5;entryY=0;entryDx=0;entryDy=0;" edge="1" parent="1" source="U4qVRm3MOC_HSsaQBMJ2-163" target="U4qVRm3MOC_HSsaQBMJ2-170">
          <mxGeometry relative="1" as="geometry" />
        </mxCell>
        <mxCell id="U4qVRm3MOC_HSsaQBMJ2-207" style="edgeStyle=orthogonalEdgeStyle;rounded=0;orthogonalLoop=1;jettySize=auto;html=1;entryX=1;entryY=0.5;entryDx=0;entryDy=0;" edge="1" parent="1" source="U4qVRm3MOC_HSsaQBMJ2-163" target="U4qVRm3MOC_HSsaQBMJ2-165">
          <mxGeometry relative="1" as="geometry" />
        </mxCell>
        <mxCell id="U4qVRm3MOC_HSsaQBMJ2-163" value="CRUD for TrailLocationPoints" style="ellipse;whiteSpace=wrap;html=1;fillColor=#f8cecc;strokeColor=#b85450;" vertex="1" parent="1">
          <mxGeometry x="4990" y="-670" width="110" height="60" as="geometry" />
        </mxCell>
        <mxCell id="U4qVRm3MOC_HSsaQBMJ2-164" value="&amp;nbsp;Can create location points" style="ellipse;whiteSpace=wrap;html=1;fillColor=#fff2cc;strokeColor=#d6b656;" vertex="1" parent="1">
          <mxGeometry x="4659" y="-740" width="110" height="60" as="geometry" />
        </mxCell>
        <mxCell id="U4qVRm3MOC_HSsaQBMJ2-165" value="Owner/Admin able to update what order they are in to a trail" style="ellipse;whiteSpace=wrap;html=1;fillColor=#fff2cc;strokeColor=#d6b656;" vertex="1" parent="1">
          <mxGeometry x="4800" y="-600" width="110" height="60" as="geometry" />
        </mxCell>
        <mxCell id="U4qVRm3MOC_HSsaQBMJ2-166" value="Owner/Admin Can delete all location points tied to a trail" style="ellipse;whiteSpace=wrap;html=1;fillColor=#fff2cc;strokeColor=#d6b656;" vertex="1" parent="1">
          <mxGeometry x="4790" y="-670" width="110" height="60" as="geometry" />
        </mxCell>
        <mxCell id="U4qVRm3MOC_HSsaQBMJ2-203" style="edgeStyle=orthogonalEdgeStyle;rounded=0;orthogonalLoop=1;jettySize=auto;html=1;" edge="1" parent="1" source="U4qVRm3MOC_HSsaQBMJ2-167" target="U4qVRm3MOC_HSsaQBMJ2-166">
          <mxGeometry relative="1" as="geometry" />
        </mxCell>
        <mxCell id="U4qVRm3MOC_HSsaQBMJ2-167" value="Admin can delete all location points tied to a trail" style="ellipse;whiteSpace=wrap;html=1;fillColor=#fff2cc;strokeColor=#d6b656;" vertex="1" parent="1">
          <mxGeometry x="4659" y="-670" width="110" height="60" as="geometry" />
        </mxCell>
        <mxCell id="U4qVRm3MOC_HSsaQBMJ2-200" style="edgeStyle=orthogonalEdgeStyle;rounded=0;orthogonalLoop=1;jettySize=auto;html=1;exitX=1;exitY=0.5;exitDx=0;exitDy=0;entryX=0;entryY=0.5;entryDx=0;entryDy=0;" edge="1" parent="1" source="U4qVRm3MOC_HSsaQBMJ2-168" target="U4qVRm3MOC_HSsaQBMJ2-170">
          <mxGeometry relative="1" as="geometry" />
        </mxCell>
        <mxCell id="U4qVRm3MOC_HSsaQBMJ2-168" value="Able to read all trails tied to a location point" style="ellipse;whiteSpace=wrap;html=1;fillColor=#fff2cc;strokeColor=#d6b656;" vertex="1" parent="1">
          <mxGeometry x="4920" y="-520" width="110" height="60" as="geometry" />
        </mxCell>
        <mxCell id="U4qVRm3MOC_HSsaQBMJ2-170" value="Able to read all location points tied to a single trail" style="ellipse;whiteSpace=wrap;html=1;fillColor=#fff2cc;strokeColor=#d6b656;" vertex="1" parent="1">
          <mxGeometry x="5050" y="-520" width="110" height="60" as="geometry" />
        </mxCell>
        <mxCell id="U4qVRm3MOC_HSsaQBMJ2-198" style="edgeStyle=orthogonalEdgeStyle;rounded=0;orthogonalLoop=1;jettySize=auto;html=1;" edge="1" parent="1" source="U4qVRm3MOC_HSsaQBMJ2-171" target="U4qVRm3MOC_HSsaQBMJ2-172">
          <mxGeometry relative="1" as="geometry" />
        </mxCell>
        <mxCell id="U4qVRm3MOC_HSsaQBMJ2-171" value="Able to read all location points" style="ellipse;whiteSpace=wrap;html=1;fillColor=#fff2cc;strokeColor=#d6b656;" vertex="1" parent="1">
          <mxGeometry x="4659" y="-520" width="110" height="60" as="geometry" />
        </mxCell>
        <mxCell id="U4qVRm3MOC_HSsaQBMJ2-199" style="edgeStyle=orthogonalEdgeStyle;rounded=0;orthogonalLoop=1;jettySize=auto;html=1;exitX=1;exitY=0.5;exitDx=0;exitDy=0;entryX=0;entryY=0.5;entryDx=0;entryDy=0;" edge="1" parent="1" source="U4qVRm3MOC_HSsaQBMJ2-172" target="U4qVRm3MOC_HSsaQBMJ2-168">
          <mxGeometry relative="1" as="geometry" />
        </mxCell>
        <mxCell id="U4qVRm3MOC_HSsaQBMJ2-172" value="Able to read one location point" style="ellipse;whiteSpace=wrap;html=1;fillColor=#fff2cc;strokeColor=#d6b656;" vertex="1" parent="1">
          <mxGeometry x="4790" y="-520" width="110" height="60" as="geometry" />
        </mxCell>
        <mxCell id="U4qVRm3MOC_HSsaQBMJ2-174" value="Can only update own data, unless admin" style="ellipse;whiteSpace=wrap;html=1;fillColor=#fff2cc;strokeColor=#d6b656;" vertex="1" parent="1">
          <mxGeometry x="4734" y="823" width="110" height="60" as="geometry" />
        </mxCell>
        <mxCell id="U4qVRm3MOC_HSsaQBMJ2-178" style="edgeStyle=orthogonalEdgeStyle;rounded=0;orthogonalLoop=1;jettySize=auto;html=1;exitX=1;exitY=0.5;exitDx=0;exitDy=0;entryX=0;entryY=0.5;entryDx=0;entryDy=0;" edge="1" parent="1" source="U4qVRm3MOC_HSsaQBMJ2-175" target="U4qVRm3MOC_HSsaQBMJ2-176">
          <mxGeometry relative="1" as="geometry" />
        </mxCell>
        <mxCell id="U4qVRm3MOC_HSsaQBMJ2-175" value="Able to view users data" style="ellipse;whiteSpace=wrap;html=1;fillColor=#fff2cc;strokeColor=#d6b656;" vertex="1" parent="1">
          <mxGeometry x="4734" y="747" width="110" height="60" as="geometry" />
        </mxCell>
        <mxCell id="U4qVRm3MOC_HSsaQBMJ2-176" value="Password and email hidden from non-admins" style="ellipse;whiteSpace=wrap;html=1;fillColor=#fff2cc;strokeColor=#d6b656;" vertex="1" parent="1">
          <mxGeometry x="4864" y="747" width="110" height="60" as="geometry" />
        </mxCell>
        <mxCell id="U4qVRm3MOC_HSsaQBMJ2-192" style="edgeStyle=orthogonalEdgeStyle;rounded=0;orthogonalLoop=1;jettySize=auto;html=1;exitX=1;exitY=0.5;exitDx=0;exitDy=0;" edge="1" parent="1" source="U4qVRm3MOC_HSsaQBMJ2-180" target="U4qVRm3MOC_HSsaQBMJ2-181">
          <mxGeometry relative="1" as="geometry" />
        </mxCell>
        <mxCell id="U4qVRm3MOC_HSsaQBMJ2-180" value="Can only delete themesleves" style="ellipse;whiteSpace=wrap;html=1;fillColor=#fff2cc;strokeColor=#d6b656;" vertex="1" parent="1">
          <mxGeometry x="4734" y="900" width="110" height="60" as="geometry" />
        </mxCell>
        <mxCell id="U4qVRm3MOC_HSsaQBMJ2-181" value="Only admin can delete any user" style="ellipse;whiteSpace=wrap;html=1;fillColor=#fff2cc;strokeColor=#d6b656;" vertex="1" parent="1">
          <mxGeometry x="4864" y="900" width="110" height="60" as="geometry" />
        </mxCell>
        <mxCell id="U4qVRm3MOC_HSsaQBMJ2-182" value="Only owner/admin can delete trail" style="ellipse;whiteSpace=wrap;html=1;fillColor=#fff2cc;strokeColor=#d6b656;" vertex="1" parent="1">
          <mxGeometry x="4723" y="554" width="110" height="60" as="geometry" />
        </mxCell>
        <mxCell id="U4qVRm3MOC_HSsaQBMJ2-189" style="edgeStyle=orthogonalEdgeStyle;rounded=0;orthogonalLoop=1;jettySize=auto;html=1;exitX=1;exitY=0.5;exitDx=0;exitDy=0;entryX=0;entryY=0.5;entryDx=0;entryDy=0;" edge="1" parent="1" source="U4qVRm3MOC_HSsaQBMJ2-183" target="U4qVRm3MOC_HSsaQBMJ2-184">
          <mxGeometry relative="1" as="geometry" />
        </mxCell>
        <mxCell id="U4qVRm3MOC_HSsaQBMJ2-183" value="Must have id to create trail" style="ellipse;whiteSpace=wrap;html=1;fillColor=#fff2cc;strokeColor=#d6b656;" vertex="1" parent="1">
          <mxGeometry x="4723" y="344" width="110" height="60" as="geometry" />
        </mxCell>
        <mxCell id="U4qVRm3MOC_HSsaQBMJ2-184" value="Can create multiple trails" style="ellipse;whiteSpace=wrap;html=1;fillColor=#fff2cc;strokeColor=#d6b656;" vertex="1" parent="1">
          <mxGeometry x="4853" y="344" width="110" height="60" as="geometry" />
        </mxCell>
        <mxCell id="U4qVRm3MOC_HSsaQBMJ2-193" value="Uses mircosoft API as specified" style="ellipse;whiteSpace=wrap;html=1;fillColor=#fff2cc;strokeColor=#d6b656;" vertex="1" parent="1">
          <mxGeometry x="4723" y="990" width="110" height="60" as="geometry" />
        </mxCell>
      </root>
    </mxGraphModel>
  </diagram>
</mxfile>
